<svg width="16" height="16" viewBox="0 0 16 16" fill="none" xmlns="http://www.w3.org/2000/svg">
<g clip-path="url(#clip0_81_40)">
<path d="M15.8093 8.1497C15.8093 7.49419 15.7562 7.01584 15.641 6.51978H8.15572V9.47843H12.5494C12.4609 10.2137 11.9825 11.321 10.9195 12.0651L10.9046 12.1641L13.2713 13.9976L13.4353 14.0139C14.9412 12.6232 15.8093 10.5769 15.8093 8.1497Z" fill="#4285F4"/>
<path d="M8.15572 15.945C10.3083 15.945 12.1154 15.2363 13.4353 14.0139L10.9195 12.065C10.2463 12.5345 9.34271 12.8623 8.15572 12.8623C6.04745 12.8623 4.25807 11.4716 3.62021 9.54932L3.52671 9.55726L1.06577 11.4618L1.03358 11.5513C2.34461 14.1556 5.03755 15.945 8.15572 15.945Z" fill="#34A853"/>
<path d="M3.62021 9.5493C3.45191 9.05324 3.3545 8.5217 3.3545 7.97251C3.3545 7.42326 3.45191 6.89177 3.61136 6.39571L3.6069 6.29006L1.11511 4.35492L1.03359 4.3937C0.49325 5.47443 0.183205 6.68805 0.183205 7.97251C0.183205 9.25697 0.49325 10.4705 1.03359 11.5513L3.62021 9.5493Z" fill="#FBBC05"/>
<path d="M8.15572 3.08269C9.65276 3.08269 10.6626 3.72934 11.2384 4.26974L13.4884 2.07285C12.1066 0.788397 10.3083 0 8.15572 0C5.03755 0 2.34461 1.78937 1.03358 4.39371L3.61136 6.39573C4.25807 4.47347 6.04745 3.08269 8.15572 3.08269Z" fill="#EB4335"/>
</g>
<defs>
<clipPath id="clip0_81_40">
<rect width="16" height="16" fill="white"/>
</clipPath>
</defs>
</svg>
